# 3ds Max Wavefront OBJ Exporter v0.97b - (c)2007 guruware
# File Created: 15.02.2013 01:02:51

#
# object Box001
#

v  -25.0000 -25.0000 25.0000
v  25.0000 -25.0000 25.0000
v  25.0000 -25.0000 -25.0000
v  -25.0000 -25.0000 -25.0000
v  -25.0000 25.0000 25.0000
v  -25.0000 25.0000 -25.0000
v  25.0000 25.0000 -25.0000
v  25.0000 25.0000 25.0000
# 8 vertices

vn 0.0000 1.0000 -0.0000
vn 0.0000 -1.0000 -0.0000
vn 0.0000 0.0000 -1.0000
vn -1.0000 0.0000 -0.0000
vn 0.0000 0.0000 1.0000
vn 1.0000 0.0000 -0.0000
# 6 vertex normals

vt 1.7749 -0.1375 0.0000
vt 0.5000 0.7640 0.0000
vt -0.7749 -0.1375 0.0000
vt 0.5000 -1.0390 0.0000
vt 1.7749 1.1375 0.0000
vt 0.5000 0.2360 0.0000
vt -0.7749 1.1375 0.0000
vt 0.5000 2.0390 0.0000
# 8 texture coords

g Box001
f 1/1/1 2/2/1 3/3/1 4/4/1 
f 5/5/2 6/6/2 7/7/2 8/8/2 
f 1/1/3 5/5/3 8/8/3 2/2/3 
f 2/2/4 8/8/4 7/7/4 3/3/4 
f 3/3/5 7/7/5 6/6/5 4/4/5 
f 4/4/6 6/6/6 5/5/6 1/1/6 
# 6 polygons

