# 3ds Max Wavefront OBJ Exporter v0.97b - (c)2007 guruware
# File Created: 06.01.2013 07:26:51

#
# object Cone001
#

v  -0.4000 0.0000 -0.0000
v  -0.4000 -0.0000 -0.1000
v  -0.4000 0.0707 -0.0707
v  -0.4000 0.1000 -0.0000
v  -0.4000 -0.1000 0.0000
v  -0.4000 -0.0707 -0.0707
v  -0.4000 0.0000 0.1000
v  -0.4000 -0.0707 0.0707
v  -0.4000 0.0707 0.0707
v  -0.8000 -0.0000 -0.0000
# 10 vertices

vn 1.0000 0.0000 -0.0000
vn -0.2425 0.9701 0.0000
vn -0.2425 0.6860 -0.6860
vn -0.2250 0.9002 -0.3729
vn -0.2250 0.9002 0.3729
vn -0.2425 -0.0000 -0.9701
vn -0.2250 0.3729 -0.9002
vn -0.2425 -0.6860 -0.6860
vn -0.2250 -0.3729 -0.9002
vn -0.2425 -0.9701 0.0000
vn -0.2250 -0.9002 -0.3729
vn -0.2425 -0.6860 0.6860
vn -0.2250 -0.9002 0.3729
vn -0.2425 -0.0000 0.9701
vn -0.2250 -0.3729 0.9002
vn -0.2425 0.6860 0.6860
vn -0.2250 0.3729 0.9002
vn -0.0000 1.0000 -0.0000
# 18 vertex normals

vt 0.5000 0.0000 0.0000
vt 0.0000 0.0000 1.0000
vt -0.1250 0.0000 1.0000
vt 0.1161 0.0000 0.4142
vt 0.2500 0.0000 1.0000
vt 0.1250 0.0000 1.0000
vt 0.5000 0.0000 1.0000
vt 0.3750 0.0000 1.0000
vt 0.7500 0.0000 1.0000
vt 0.6250 0.0000 1.0000
vt 0.8750 0.0000 1.0000
vt 0.5000 1.0000 0.0000
# 12 texture coords

g Cone001
s 1
f 1/1/1 2/2/1 3/3/1 4/4/1 
f 1/1/1 5/5/1 6/6/1 2/2/1 
f 1/1/1 7/7/1 8/8/1 5/5/1 
f 1/1/1 4/9/1 9/10/1 7/7/1 
s 8
f 4/9/2 3/11/3 10/12/4 10/12/5 
f 3/3/3 2/2/6 10/12/7 10/12/4 
f 2/2/6 6/6/8 10/12/9 10/12/7 
f 6/6/8 5/5/10 10/12/11 10/12/9 
f 5/5/10 8/8/12 10/12/13 10/12/11 
f 8/8/12 7/7/14 10/12/15 10/12/13 
f 7/7/14 9/10/16 10/12/17 10/12/15 
f 9/10/16 4/9/2 10/12/5 10/12/17 
s 1
f 10/12/18 10/12/18 10/12/18 10/12/18 
f 10/12/18 10/12/18 10/12/18 10/12/18 
f 10/12/18 10/12/18 10/12/18 10/12/18 
f 10/12/18 10/12/18 10/12/18 10/12/18 
# 16 polygons

#
# object Cylinder001
#

v  0.8000 0.0000 -0.0000
v  0.8000 -0.0000 -0.1000
v  0.8000 0.0707 -0.0707
v  0.8000 0.1000 -0.0000
v  0.8000 -0.1000 0.0000
v  0.8000 -0.0707 -0.0707
v  0.8000 0.0000 0.1000
v  0.8000 -0.0707 0.0707
v  0.8000 0.0707 0.0707
v  -0.4000 0.0707 -0.0707
v  -0.4000 0.1000 -0.0000
v  -0.4000 0.0000 -0.1000
v  -0.4000 -0.0707 -0.0707
v  -0.4000 -0.1000 0.0000
v  -0.4000 -0.0707 0.0707
v  -0.4000 0.0000 0.1000
v  -0.4000 0.0707 0.0707
v  -0.4000 0.0000 -0.0000
# 18 vertices

vn 1.0000 -0.0000 -0.0000
vn 0.0000 1.0000 0.0000
vn 0.0000 0.7071 -0.7071
vn 0.0000 1.0000 -0.0000
vn -0.0000 -0.0000 -1.0000
vn -0.0000 -0.7071 -0.7071
vn -0.0000 -1.0000 0.0000
vn -0.0000 -0.7071 0.7071
vn -0.0000 -0.0000 1.0000
vn 0.0000 0.0000 1.0000
vn 0.0000 0.7071 0.7071
vn -1.0000 0.0000 -0.0000
# 12 vertex normals

vt 0.5000 0.0000 0.0000
vt 0.0000 0.0000 1.0000
vt -0.1250 0.0000 1.0000
vt 0.1161 0.0000 0.4142
vt 0.2500 0.0000 1.0000
vt 0.1250 0.0000 1.0000
vt 0.5000 0.0000 1.0000
vt 0.3750 0.0000 1.0000
vt 0.7500 0.0000 1.0000
vt 0.6250 0.0000 1.0000
vt 0.8750 0.0000 1.0000
vt 0.8750 1.0000 1.0000
vt 0.7500 1.0000 1.0000
vt 0.0000 1.0000 1.0000
vt -0.1250 1.0000 1.0000
vt 0.1250 1.0000 1.0000
vt 0.2500 1.0000 1.0000
vt 0.3750 1.0000 1.0000
vt 0.5000 1.0000 1.0000
vt 0.6250 1.0000 1.0000
vt 0.5000 1.0000 0.0000
# 21 texture coords

g Cylinder001
s 1
f 11/13/19 12/14/19 13/15/19 14/16/19 
f 11/13/19 15/17/19 16/18/19 12/14/19 
f 11/13/19 17/19/19 18/20/19 15/17/19 
f 11/13/19 14/21/19 19/22/19 17/19/19 
s 8
f 14/21/20 13/23/21 20/24/21 21/25/22 
f 13/15/21 12/14/23 22/26/23 20/27/21 
f 12/14/23 16/18/24 23/28/24 22/26/23 
f 16/18/24 15/17/25 24/29/25 23/28/24 
f 15/17/25 18/20/26 25/30/26 24/29/25 
f 18/20/26 17/19/27 26/31/28 25/30/26 
f 17/19/27 19/22/29 27/32/29 26/31/28 
f 19/22/29 14/21/20 21/25/22 27/32/29 
s 1
f 28/33/30 27/32/30 21/25/30 20/24/30 
f 28/33/30 20/27/30 22/26/30 23/28/30 
f 28/33/30 23/28/30 24/29/30 25/30/30 
f 28/33/30 25/30/30 26/31/30 27/32/30 
# 16 polygons

#
# object Plane001
#

v  0.3600 -0.1525 -0.0000
v  0.8000 -0.3000 -0.0000
v  0.8000 0.3000 0.0000
v  0.3600 0.1525 0.0000
# 4 vertices

vn 0.0000 -0.0000 1.0000
vn -0.0000 -0.0000 1.0000
# 2 vertex normals

vt 0.0000 0.0000 0.0000
vt 1.0000 0.0000 0.0000
vt 1.0000 1.0000 0.0000
vt 0.0000 1.0000 0.0000
# 4 texture coords

g Plane001
s 1
f 29/34/31 30/35/32 31/36/31 32/37/31 
# 1 polygons

#
# object Plane002
#

v  0.3572 0.0000 0.1569
v  0.8000 0.0000 0.3000
v  0.8000 0.0000 -0.3000
v  0.3572 0.0000 -0.1569
# 4 vertices

vn 0.0000 1.0000 -0.0000
# 1 vertex normals

vt 0.0000 0.0000 0.0000
vt 1.0000 0.0000 0.0000
vt 1.0000 1.0000 0.0000
vt 0.0000 1.0000 0.0000
# 4 texture coords

g Plane002
s 1
f 33/38/33 34/39/33 35/40/33 36/41/33 
# 1 polygons

