# 3ds Max Wavefront OBJ Exporter v0.97b - (c)2007 guruware
# File Created: 19.01.2013 20:45:43

#
# object nav_mesh
#

v  -135.6727 37.0350 -11.8458
v  -84.8317 36.2064 -50.9585
v  -115.5665 36.1480 -56.4957
v  133.2483 36.1486 114.4989
v  78.3667 36.1338 68.5392
v  41.7044 36.1167 155.2814
v  -105.9520 36.2218 39.5700
v  -62.3502 36.2338 31.7238
v  -56.8888 36.2997 9.6590
v  86.4113 36.3550 -101.6999
v  83.5619 36.2032 -140.3298
v  56.0647 36.3137 -102.1990
v  -146.9722 36.1084 139.3108
v  -11.2298 37.0944 47.3357
v  -111.8033 35.3583 86.0346
v  -77.1660 36.2079 135.9009
v  -25.8681 36.1746 135.5325
v  -8.0310 36.2535 108.5561
v  -30.2305 36.0728 -100.6786
v  -42.7039 36.5186 -141.4401
v  -61.8983 36.1441 -97.3413
v  -105.3475 36.1416 -156.2739
v  -171.0661 36.1146 -127.9959
v  -159.3836 36.1169 -80.4407
v  147.5710 36.4266 -139.7467
v  -100.2600 36.0894 166.8034
v  -77.4000 36.2392 -140.7749
v  -136.9395 36.1222 -75.6447
v  -104.6634 36.2344 -74.7546
v  -67.7834 36.2453 -15.2728
v  28.5820 36.2626 -123.9449
v  6.4437 35.8795 -117.0362
v  6.0122 36.1920 -82.0469
v  5.5668 36.0536 -8.7080
v  71.6969 36.1135 -81.4386
v  66.5254 36.1670 48.9915
v  50.3783 36.1049 69.6738
v  157.8058 36.1984 -125.1224
v  150.5066 36.0964 -87.9897
v  43.6896 36.5511 -33.7734
v  77.3796 36.2080 -65.6328
v  75.9682 36.1349 -0.1885
v  119.1869 36.0075 -6.9377
v  96.9329 36.1111 -45.4650
v  -17.2717 36.1553 -124.0127
v  23.4215 36.1586 138.5051
v  -157.8574 36.0395 53.6302
v  -122.8119 36.2119 37.5683
v  -150.7352 36.1569 18.5616
v  115.7428 36.2974 35.3692
v  -68.7216 36.2073 136.4269
v  -45.0841 36.2097 139.0998
v  2.7016 36.0374 -50.6025
v  -19.0064 35.9158 -61.8782
v  -37.6845 35.8570 -22.2918
v  -27.3655 36.0819 23.4613
v  -9.7605 35.8294 1.0859
v  -143.7458 36.4989 -152.2761
v  88.1021 36.6357 27.3326
v  31.9710 35.9615 68.6248
v  14.9356 36.3953 44.9397
v  21.1084 36.4107 9.7372
v  -57.7182 36.1458 -67.8059
v  -77.1625 36.1780 -98.9786
v  -37.4112 36.1829 43.7496
v  -76.2347 36.9128 158.3394
v  38.2251 36.2407 -11.8123
v  28.8322 36.4910 29.3566
v  93.5431 36.1044 -86.0902
v  72.9435 36.7882 -36.1710
v  68.7717 36.1480 28.8271
v  -19.5563 36.1795 -83.5171
v  -88.2267 36.3005 -22.2518
v  -59.2623 36.2304 -45.2038
v  -159.4447 36.1189 78.7623
v  -129.1289 36.1377 82.5659
v  -3.4060 36.2543 -137.8291
v  -130.3607 36.2461 104.7065
v  -114.6290 36.1618 10.6805
v  98.1141 36.1561 158.8464
v  131.7809 36.6690 133.4364
v  1.6459 36.0509 139.1381
v  25.6150 36.1647 112.8405
v  -6.2768 38.0031 26.2838
v  29.3032 36.2940 91.4823
v  46.3703 35.4675 89.5409
v  136.8720 36.5201 -55.8723
v  -45.4120 36.3795 -64.9456
v  -158.8335 36.2976 126.3460
v  -138.2246 36.2464 112.1511
v  -119.9544 36.6461 163.3707
v  119.4545 36.7103 148.7062
# 92 vertices

vn 0.0080 0.9999 -0.0108
vn 0.0152 0.9999 -0.0015
vn -0.0003 1.0000 -0.0088
vn -0.0074 0.9997 -0.0232
vn -0.0010 1.0000 -0.0052
vn -0.6944 0.6418 -0.3254
vn -0.0010 1.0000 0.0009
vn -0.0023 1.0000 0.0024
vn -0.0003 1.0000 0.0001
vn -0.0005 1.0000 -0.0002
vn 0.0015 1.0000 0.0008
vn -0.0007 1.0000 -0.0007
vn 0.0027 0.9999 0.0164
vn 0.0010 1.0000 0.0070
vn 0.0003 1.0000 0.0031
vn -0.0023 1.0000 -0.0012
vn -0.0013 1.0000 -0.0038
vn -0.0028 1.0000 -0.0037
vn -0.0015 0.9999 0.0108
vn -0.0304 0.9990 -0.0341
vn -0.0010 1.0000 0.0093
vn -0.0302 0.9990 -0.0338
vn -0.0302 0.9990 -0.0336
vn 0.0997 0.9937 0.0518
vn -0.0008 1.0000 0.0094
vn -0.0005 1.0000 0.0096
vn -0.0013 1.0000 0.0029
vn 0.0151 0.9998 0.0129
vn 0.0039 0.9999 0.0111
vn 0.0119 0.9998 0.0131
vn 0.0021 1.0000 0.0043
vn 0.0051 0.9999 0.0135
vn 0.0052 0.9999 0.0093
vn 0.0059 0.9999 0.0091
vn 0.0033 0.9999 0.0099
vn 0.0022 1.0000 -0.0004
vn 0.0042 0.9999 0.0107
vn 0.0016 1.0000 0.0047
vn -0.0035 1.0000 -0.0037
vn 0.0035 1.0000 0.0075
vn 0.0091 0.9998 -0.0148
vn -0.0126 0.9999 -0.0056
vn 0.0399 0.9970 -0.0671
vn -0.0446 0.9986 -0.0295
vn -0.0031 1.0000 -0.0010
vn -0.0033 1.0000 -0.0012
vn -0.0034 1.0000 -0.0013
vn 0.0033 1.0000 0.0014
vn -0.0024 1.0000 -0.0012
vn 0.0112 0.9999 -0.0071
vn -0.0025 1.0000 -0.0013
vn -0.0154 0.9999 0.0062
vn -0.0154 0.9999 0.0061
vn -0.0202 0.9998 -0.0092
vn 0.0075 1.0000 0.0057
vn 0.0053 1.0000 0.0056
vn -0.0054 1.0000 -0.0041
vn 0.0024 1.0000 0.0078
vn -0.0052 1.0000 -0.0000
vn -0.0009 1.0000 0.0023
vn -0.0076 1.0000 -0.0029
vn -0.0001 0.9997 0.0225
vn -0.0005 0.9999 0.0123
vn 0.0047 1.0000 0.0078
vn 0.0059 0.9999 0.0114
vn 0.0016 0.9999 0.0113
vn 0.0029 1.0000 0.0051
vn -0.0554 0.9961 -0.0693
vn -0.0098 0.9997 -0.0212
vn -0.0080 0.9999 -0.0074
vn -0.0657 0.9946 -0.0802
vn -0.0166 0.9998 -0.0054
vn 0.0031 1.0000 0.0009
vn 0.0025 1.0000 -0.0031
vn 0.0341 0.9993 0.0153
vn 0.0086 0.9999 0.0083
vn 0.0056 0.9999 0.0127
vn -0.0023 1.0000 -0.0022
vn -0.0057 1.0000 -0.0016
vn -0.0066 1.0000 -0.0036
vn -0.0037 1.0000 0.0026
vn -0.0024 1.0000 0.0007
vn 0.0019 1.0000 -0.0067
vn 0.0078 0.9999 -0.0133
vn -0.0011 1.0000 0.0092
vn -0.0007 1.0000 0.0095
vn 0.0007 1.0000 0.0099
vn -0.0037 1.0000 0.0016
vn -0.0049 1.0000 0.0003
vn 0.0149 0.9999 0.0085
vn 0.0038 1.0000 -0.0031
vn 0.0139 0.9999 0.0044
vn 0.0063 1.0000 -0.0063
vn -0.0042 0.9999 -0.0146
vn 0.0108 0.9999 -0.0074
vn 0.0124 0.9995 0.0298
vn 0.0201 0.9994 -0.0270
vn 0.0153 0.9998 -0.0105
vn -0.0257 0.9996 -0.0068
vn 0.0081 0.9999 0.0141
vn 0.0266 0.9996 -0.0008
vn 0.0198 0.9998 0.0040
vn 0.0316 0.9994 -0.0109
vn -0.0328 0.9952 -0.0921
vn -0.0626 0.9782 -0.1978
vn -0.0128 0.9997 -0.0214
vn -0.0175 0.9998 -0.0046
vn 0.0013 1.0000 0.0040
vn 0.0011 1.0000 0.0054
vn 0.0019 1.0000 -0.0003
vn 0.0020 1.0000 -0.0002
vn 0.0022 1.0000 0.0002
vn 0.0028 1.0000 0.0008
vn 0.0110 0.9999 -0.0073
vn -0.0040 0.9999 0.0125
vn -0.0229 0.9995 -0.0207
vn 0.0031 0.9998 0.0190
vn -0.0034 1.0000 0.0019
vn 0.0045 1.0000 0.0054
vn -0.0008 1.0000 0.0048
vn 0.0351 0.9992 0.0200
vn 0.0063 1.0000 -0.0029
vn 0.0032 1.0000 -0.0053
vn 0.0085 1.0000 -0.0041
vn -0.0171 0.9998 -0.0049
vn 0.0403 0.9989 0.0242
vn -0.0045 1.0000 -0.0060
vn -0.0154 0.9997 -0.0197
vn 0.0001 1.0000 -0.0002
vn 0.0007 0.9999 0.0157
vn 0.0273 0.9996 -0.0024
vn 0.0320 0.9994 0.0099
vn 0.0027 1.0000 0.0002
vn -0.0139 0.9999 -0.0039
vn -0.0055 1.0000 -0.0018
vn -0.0121 0.9998 0.0125
vn -0.0001 0.9999 0.0122
vn 0.0053 1.0000 -0.0005
vn 0.0137 0.9998 0.0143
vn 0.0104 0.9999 0.0101
vn 0.0127 0.9998 0.0119
vn -0.0002 1.0000 -0.0033
vn -0.0030 1.0000 -0.0009
vn -0.0008 1.0000 0.0015
vn -0.0005 1.0000 -0.0009
vn -0.0004 1.0000 -0.0017
vn 0.0062 0.9999 0.0134
vn 0.0066 0.9999 0.0138
vn 0.0890 0.9949 0.0467
vn 0.0070 0.9999 0.0073
vn 0.0546 0.9985 0.0068
vn 0.0454 0.9990 -0.0024
vn -0.0102 0.9997 0.0228
vn 0.0074 0.9999 0.0145
vn -0.0005 1.0000 -0.0020
vn 0.0031 0.9999 0.0149
vn -0.0004 1.0000 -0.0020
vn 0.0069 0.9995 0.0323
vn -0.0000 1.0000 -0.0049
vn 0.0083 0.9999 0.0123
vn -0.0069 1.0000 -0.0017
vn 0.0088 0.9999 0.0140
vn -0.0229 0.9995 -0.0231
vn 0.0088 0.9999 -0.0101
vn -0.0382 0.9988 -0.0304
vn -0.0408 0.9986 -0.0339
vn -0.0387 0.9988 -0.0312
vn -0.0025 1.0000 -0.0016
vn -0.0051 1.0000 -0.0043
vn 0.0180 0.9996 0.0207
vn -0.0963 0.9886 -0.1154
vn 0.0027 1.0000 0.0057
vn 0.0028 1.0000 0.0059
vn -0.0078 0.9999 -0.0088
vn -0.0155 0.9998 -0.0152
vn 0.0158 0.9999 0.0036
vn -0.0757 0.9936 -0.0838
vn -0.0070 1.0000 -0.0019
vn -0.0074 1.0000 -0.0025
vn 0.0087 0.9999 0.0073
vn 0.0265 0.9993 0.0261
vn 0.0023 1.0000 -0.0076
vn 0.0226 0.9995 0.0206
vn 0.0042 1.0000 -0.0049
vn 0.0077 0.9999 0.0076
vn 0.0071 0.9999 0.0074
vn -0.0441 0.9983 -0.0383
# 187 vertex normals

vt 0.5569 0.8942 0.0000
vt 0.6764 0.7334 0.0000
vt 0.6944 0.8264 0.0000
vt 0.1577 0.0745 0.0000
vt 0.3016 0.2400 0.0000
vt 0.0343 0.3540 0.0000
vt 0.3968 0.8004 0.0000
vt 0.4198 0.6676 0.0000
vt 0.4879 0.6508 0.0000
vt 0.8282 0.2118 0.0000
vt 0.9479 0.2184 0.0000
vt 0.8307 0.3039 0.0000
vt 0.0894 0.9275 0.0000
vt 0.3699 0.5177 0.0000
vt 0.2532 0.8144 0.0000
vt 0.0978 0.7156 0.0000
vt 0.0974 0.5594 0.0000
vt 0.1804 0.5048 0.0000
vt 0.8286 0.5650 0.0000
vt 0.9551 0.6044 0.0000
vt 0.8192 0.6619 0.0000
vt 1.0029 0.7923 0.0000
vt 0.9174 0.9929 0.0000
vt 0.7699 0.9588 0.0000
vt 0.9441 0.0250 0.0000
vt 0.0029 0.7861 0.0000
vt 0.9541 0.7083 0.0000
vt 0.7543 0.8907 0.0000
vt 0.7506 0.7932 0.0000
vt 0.5654 0.6828 0.0000
vt 0.8988 0.3865 0.0000
vt 0.8781 0.4518 0.0000
vt 0.7698 0.4560 0.0000
vt 0.5429 0.4587 0.0000
vt 0.7660 0.2557 0.0000
vt 0.3625 0.2756 0.0000
vt 0.2989 0.3250 0.0000
vt 0.8985 -0.0071 0.0000
vt 0.7838 0.0156 0.0000
vt 0.6193 0.3450 0.0000
vt 0.7169 0.2395 0.0000
vt 0.5144 0.2453 0.0000
vt 0.5340 0.1128 0.0000
vt 0.6539 0.1800 0.0000
vt 0.9004 0.5254 0.0000
vt 0.0867 0.4094 0.0000
vt 0.3549 0.9577 0.0000
vt 0.4035 0.8516 0.0000
vt 0.4632 0.9357 0.0000
vt 0.4031 0.1263 0.0000
vt 0.0960 0.6900 0.0000
vt 0.0870 0.6181 0.0000
vt 0.6726 0.4661 0.0000
vt 0.7082 0.5311 0.0000
vt 0.5862 0.5887 0.0000
vt 0.4443 0.5600 0.0000
vt 0.5130 0.5043 0.0000
vt 0.9917 0.9114 0.0000
vt 0.4288 0.2122 0.0000
vt 0.3027 0.3801 0.0000
vt 0.3766 0.4339 0.0000
vt 0.4853 0.4141 0.0000
vt 0.7277 0.6501 0.0000
vt 0.8247 0.7085 0.0000
vt 0.3818 0.5918 0.0000
vt 0.0284 0.7177 0.0000
vt 0.5515 0.3604 0.0000
vt 0.4244 0.3917 0.0000
vt 0.7797 0.1890 0.0000
vt 0.6258 0.2573 0.0000
vt 0.4248 0.2681 0.0000
vt 0.7751 0.5337 0.0000
vt 0.5876 0.7452 0.0000
vt 0.6578 0.6559 0.0000
vt 0.2772 0.9637 0.0000
vt 0.2645 0.8717 0.0000
vt 0.9427 0.4834 0.0000
vt 0.1960 0.8768 0.0000
vt 0.4865 0.8256 0.0000
vt 0.0215 0.1827 0.0000
vt 0.0992 0.0826 0.0000
vt 0.0854 0.4750 0.0000
vt 0.1661 0.4020 0.0000
vt 0.4349 0.5075 0.0000
vt 0.2321 0.3909 0.0000
vt 0.2376 0.3340 0.0000
vt 0.6849 0.0606 0.0000
vt 0.7185 0.6141 0.0000
vt 0.1299 0.9644 0.0000
vt 0.1732 0.9009 0.0000
vt 0.0141 0.8493 0.0000
vt 0.0523 0.1208 0.0000
# 92 texture coords

g nav_mesh
s 1
f 1/1/1 2/2/2 2/2/3 3/3/4 
f 2/2/3 3/3/5 3/3/4 
f 1/1/1 3/3/4 1/1/6 
f 4/4/7 5/5/8 5/5/9 6/6/10 
f 5/5/9 6/6/11 6/6/10 
f 4/4/7 6/6/10 4/4/12 
f 7/7/13 8/8/14 9/9/15 7/7/16 
f 10/10/17 11/11/18 12/12/17 10/10/19 
f 13/13/20 14/14/21 14/14/22 15/15/20 
f 14/14/22 15/15/23 15/15/20 
f 13/13/20 15/15/20 13/13/24 
f 16/16/25 14/14/26 14/14/21 13/13/21 
f 14/14/21 13/13/20 13/13/21 
f 16/16/25 13/13/21 16/16/27 
f 14/14/28 17/17/29 17/17/28 18/18/30 
f 17/17/28 18/18/31 18/18/30 
f 14/14/28 18/18/30 14/14/32 
f 19/19/33 20/20/34 21/21/35 19/19/36 
f 22/22/37 23/23/38 24/24/9 22/22/9 
f 10/10/39 25/25/40 11/11/18 10/10/17 
f 16/16/27 13/13/21 13/13/41 26/26/42 
f 13/13/41 26/26/43 26/26/42 
f 16/16/27 26/26/42 16/16/44 
f 27/27/45 28/28/46 29/29/47 27/27/48 
f 7/7/16 9/9/15 9/9/16 30/30/49 
f 9/9/16 30/30/50 30/30/49 
f 7/7/16 30/30/49 7/7/51 
f 31/31/52 32/32/53 33/33/54 31/31/55 
f 34/34/56 35/35/57 35/35/58 12/12/56 
f 35/35/58 12/12/19 12/12/56 
f 34/34/56 12/12/56 34/34/59 
f 36/36/60 37/37/61 37/37/62 5/5/63 
f 38/38/64 10/10/65 10/10/66 39/39/67 
f 40/40/68 41/41/69 41/41/70 34/34/71 
f 41/41/70 34/34/57 34/34/71 
f 40/40/68 34/34/71 40/40/72 
f 42/42/73 43/43/74 44/44/73 42/42/75 
f 20/20/34 19/19/33 45/45/76 20/20/77 
f 6/6/11 5/5/9 5/5/11 46/46/78 
f 47/47/79 48/48/80 48/48/81 49/49/82 
f 43/43/74 42/42/73 42/42/83 50/50/84 
f 14/14/85 51/51/86 52/52/87 14/14/29 
f 12/12/88 53/53/89 34/34/59 12/12/56 
f 54/54/90 30/30/91 30/30/90 55/55/92 
f 56/56/93 57/57/94 55/55/93 56/56/95 
f 23/23/38 22/22/37 58/58/96 
f 50/50/84 42/42/83 42/42/97 59/59/98 
f 42/42/97 59/59/99 59/59/98 
f 50/50/84 59/59/98 50/50/100 
f 60/60/101 61/61/102 14/14/101 60/60/103 
f 56/56/104 62/62/105 62/62/106 57/57/94 
f 62/62/106 57/57/107 57/57/94 
f 56/56/104 57/57/94 56/56/93 
f 29/29/108 63/63/109 63/63/110 21/21/111 
f 63/63/110 21/21/36 21/21/111 
f 29/29/108 21/21/111 29/29/112 
f 27/27/48 29/29/47 29/29/48 64/64/113 
f 10/10/65 38/38/64 25/25/40 10/10/39 
f 9/9/114 55/55/95 55/55/92 30/30/50 
f 55/55/92 30/30/90 30/30/50 
f 9/9/114 30/30/50 9/9/16 
f 55/55/95 9/9/114 56/56/95 55/55/93 
f 15/15/115 65/65/116 8/8/115 15/15/117 
f 53/53/55 31/31/118 31/31/55 33/33/119 
f 31/31/55 33/33/54 33/33/119 
f 53/53/55 33/33/119 53/53/120 
f 66/66/44 16/16/44 26/26/42 
f 67/67/121 62/62/122 68/68/123 67/67/124 
f 34/34/125 62/62/107 62/62/72 40/40/72 
f 62/62/72 40/40/126 40/40/72 
f 34/34/125 40/40/72 34/34/71 
f 44/44/127 39/39/128 39/39/129 69/69/129 
f 39/39/129 69/69/130 69/69/129 
f 44/44/127 69/69/129 44/44/131 
f 44/44/75 70/70/132 42/42/75 44/44/73 
f 67/67/133 71/71/124 71/71/134 42/42/135 
f 72/72/136 54/54/137 53/53/136 72/72/120 
f 73/73/138 54/54/91 54/54/139 74/74/140 
f 54/54/139 74/74/141 74/74/140 
f 73/73/138 74/74/140 73/73/142 
f 22/22/143 28/28/9 28/28/46 27/27/45 
f 22/22/9 24/24/9 28/28/9 22/22/143 
f 72/72/120 53/53/136 53/53/120 33/33/119 
f 48/48/144 75/75/80 75/75/145 76/76/146 
f 8/8/14 7/7/13 15/15/117 8/8/115 
f 45/45/147 77/77/148 20/20/77 45/45/76 
f 78/78/149 13/13/150 13/13/24 15/15/151 
f 13/13/24 15/15/20 15/15/151 
f 78/78/149 15/15/151 78/78/152 
f 77/77/153 32/32/154 32/32/53 31/31/52 
f 77/77/148 45/45/147 32/32/154 77/77/153 
f 49/49/82 48/48/81 48/48/155 79/79/156 
f 48/48/155 79/79/157 79/79/156 
f 49/49/82 79/79/156 49/49/158 
f 40/40/126 62/62/72 62/62/122 67/67/121 
f 76/76/146 75/75/145 78/78/159 76/76/152 
f 76/76/152 78/78/159 78/78/152 15/15/151 
f 60/60/160 71/71/161 71/71/160 61/61/102 
f 71/71/160 61/61/162 61/61/102 
f 60/60/160 61/61/102 60/60/101 
f 62/62/107 34/34/125 57/57/107 62/62/106 
f 41/41/69 40/40/68 70/70/69 41/41/163 
f 44/44/131 69/69/129 69/69/164 70/70/132 
f 69/69/164 70/70/163 70/70/132 
f 44/44/131 70/70/132 44/44/75 
f 73/73/2 2/2/142 2/2/2 1/1/1 
f 12/12/19 35/35/58 10/10/19 12/12/17 
f 70/70/163 69/69/164 41/41/163 70/70/69 
f 35/35/57 34/34/56 34/34/57 41/41/70 
f 39/39/67 10/10/66 69/69/130 39/39/129 
f 48/48/80 47/47/79 75/75/80 48/48/144 
f 4/4/12 6/6/10 80/80/12 4/4/165 
f 4/4/165 80/80/12 80/80/166 81/81/167 
f 3/3/109 63/63/5 63/63/109 29/29/108 
f 1/1/158 49/49/6 49/49/158 79/79/156 
f 49/49/6 1/1/158 1/1/6 3/3/4 
f 79/79/157 48/48/155 7/7/157 79/79/51 
f 79/79/51 7/7/157 7/7/51 30/30/49 
f 54/54/91 73/73/138 30/30/91 54/54/90 
f 64/64/113 29/29/48 29/29/112 21/21/111 
f 14/14/29 52/52/87 17/17/29 14/14/28 
f 15/15/23 14/14/22 65/65/116 15/15/115 
f 53/53/89 12/12/88 31/31/118 53/53/55 
f 82/82/168 5/5/169 5/5/170 83/83/170 
f 5/5/170 83/83/171 83/83/170 
f 82/82/168 83/83/170 82/82/40 
f 83/83/172 17/17/173 82/82/40 83/83/170 
f 84/84/105 62/62/105 56/56/104 
f 63/63/174 19/19/175 19/19/36 21/21/36 
f 19/19/36 21/21/35 21/21/36 
f 63/63/174 21/21/36 63/63/110 
f 14/14/32 18/18/30 85/85/176 14/14/103 
f 18/18/31 17/17/28 17/17/173 83/83/172 
f 83/83/171 5/5/170 5/5/171 86/86/177 
f 60/60/103 14/14/101 14/14/103 85/85/176 
f 87/87/128 39/39/128 44/44/127 
f 5/5/63 37/37/62 86/86/177 5/5/171 
f 36/36/178 60/60/179 37/37/61 36/36/60 
f 5/5/169 82/82/168 46/46/78 5/5/11 
f 68/68/180 71/71/162 71/71/124 67/67/124 
f 71/71/124 67/67/133 67/67/124 
f 68/68/180 67/67/124 68/68/123 
f 71/71/162 68/68/180 61/61/162 71/71/160 
f 74/74/141 54/54/139 54/54/137 72/72/141 
f 54/54/137 72/72/136 72/72/141 
f 74/74/141 72/72/141 74/74/181 
f 19/19/182 88/88/175 88/88/183 72/72/184 
f 89/89/185 13/13/185 90/90/186 
f 50/50/100 59/59/98 5/5/100 50/50/8 
f 50/50/8 5/5/100 5/5/8 4/4/7 
f 72/72/184 88/88/183 74/74/181 72/72/141 
f 63/63/5 3/3/109 3/3/5 2/2/3 
f 2/2/142 73/73/2 73/73/142 74/74/140 
f 42/42/135 71/71/134 59/59/99 42/42/97 
f 19/19/175 63/63/174 88/88/175 19/19/182 
f 60/60/179 36/36/178 71/71/161 60/60/160 
f 91/91/43 26/26/43 13/13/41 
f 14/14/26 16/16/25 51/51/86 14/14/85 
f 90/90/186 13/13/185 13/13/150 78/78/149 
f 92/92/187 81/81/167 80/80/166 
# 103 polygons - 57 triangles

